<svg
  viewBox="0 0 60 60"
  x="0"
  y="0"
  width="100%"
  height="100%"
  class="image-svg-svg bn"
  style="overflow: visible"
>
  <g
    hollow-target="iconBnFill"
    mask="url(#3582eb35-cde4-4f42-b295-eea3e7f45b6e)"
  >
    <g>
      <svg
          xmlns="http://www.w3.org/2000/svg"
          xmlns:xlink="http://www.w3.org/1999/xlink"
          xml:space="preserve"
          version="1.1"
          style="
            shape-rendering: geometricprecision;
            text-rendering: geometricprecision;
            overflow: visible;
          "
          viewBox="0 0 249 249"
          x="0"
          y="0"
          width="60"
          height="60"
          filtersec="colorsf7981568386"
          fill="#20124d"
        >
          <g transform="scale(1, 1) skewX(0)">
            <g>
              <path
                class="fil0"
                d="M125 0c68,0 124,56 124,125 0,68 -56,124 -124,124 -69,0 -125,-56 -125,-124 0,-69 56,-125 125,-125z"
              ></path>
            </g>
          </g>
        </svg>

    </g>
    <g fill="#ffffff">
      <svg
          xmlns="http://www.w3.org/2000/svg"
          xmlns:xlink="http://www.w3.org/1999/xlink"
          viewBox="0 0 151.20000000000002 78.48"
          width="45"
          height="45"
          x="7.5"
          y="7.5"
          class="image-svg-letter"
        >
          <path
            transform="translate(-3.6000000000000005 59.760000000000005)"
            d="M21.31 0C20.66-13.10 20.66-26.21 21.38-39.31L4.10-39.31C4.82-25.70 4.82-13.61 4.18 0ZM12.53-43.56C18.79-43.56 21.46-47.16 21.46-51.62C21.46-55.94 18.65-59.76 12.53-59.76C6.12-59.76 3.60-55.94 3.60-51.62C3.60-47.16 6.12-43.56 12.53-43.56ZM28.30 0L45.50 0C45.14-8.21 45.22-12.60 45.36-18.50C45.72-23.54 48.31-26.42 51.55-26.42C54.65-26.42 57.02-23.83 57.02-19.51C57.02-12.31 56.88-7.06 56.59 0L72.79 0C72.43-5.33 72.43-11.30 72.43-18.07L72.43-18.00C72.43-23.83 75.38-26.42 78.41-26.42C81.94-26.42 84.31-23.83 84.31-19.51C84.31-12.31 84.17-7.06 83.74 0L100.51 0C100.30-5.47 100.30-12.02 100.37-18.07L100.37-23.76C100.37-33.84 95.18-40.03 86.54-40.03C79.92-40.03 74.38-35.71 72.14-28.87C70.99-35.28 66.24-40.03 58.54-40.03C52.70-40.03 47.30-36.79 45.00-28.66L42.84-39.31C36.58-39.02 34.56-39.02 28.30-39.31C29.02-26.21 29.02-12.96 28.30 0ZM140.98-39.31L139.18-31.46C136.44-37.87 130.54-40.03 123.34-40.03C113.76-40.03 106.99-31.10 106.99-20.09C106.99-9.36 113.62-0.72 123.55-0.72C130.75-0.72 136.44-3.53 139.10-10.94L139.10-8.14C139.03-7.42 139.03-6.70 139.03-5.76C139.03 2.45 133.27 4.61 126.79 4.61C121.82 4.61 117.43 3.38 112.25 0.43L109.01 11.45C112.68 15.84 120.24 18.72 129.46 18.72C142.49 18.72 154.44 12.17 154.44-5.76C154.44-14.76 154.44-27.50 154.80-39.31ZM130.90-27.94C135.94-27.94 138.89-25.85 138.89-19.66C138.89-14.18 133.92-12.24 131.04-12.24C126.79-12.24 123.41-15.19 123.41-19.66C123.41-24.48 126.22-27.94 130.90-27.94Z"
          ></path>
        </svg>
    </g>
  </g>
  <mask id="3582eb35-cde4-4f42-b295-eea3e7f45b6e">
    <g fill="white">
      <svg
        xmlns="http://www.w3.org/2000/svg"
        viewBox="0.00147 -0.00415 416.78745 416.43256"
        style="overflow: visible"
        width="60"
        height="59.94904331318379"
        x="0"
        y="0"
        filtersec="colorsf545749587"
      >
        <g transform="scale(1, 1) skewX(0)">
          <g>
            <path
              d="M415.65 162.72c-1.21-20.68-3.53-41.15-9.32-61.09-13.62-46.83-44.09-76.88-90.72-90.72-29.06-8.63-59-9.79-89-10.65-19.47-.56-39-.2-58.44.8C145.49 2.23 123 4.5 101.11 11 57.7 23.81 27.75 51 12.84 94.11c-9 26-11.62 53-12.31 80.17-.67 26.79-.92 53.62.58 80.43 1.16 20.7 3.6 41.12 9.35 61.08 10.93 38 33.73 66.06 69.8 82.8 16 7.43 33 11.3 50.41 13.89 25.8 3.84 51.76 4 80.91 3.94 12.32-.36 27.79.05 43.29-.9 20.68-1.28 41.14-3.58 61.07-9.4 43.93-12.84 73.71-40.65 88.46-84.19 8.65-25.53 11.24-52.07 11.87-78.74s.95-53.66-.62-80.47z"
            ></path>
          </g>
        </g>
        <defs></defs>
      </svg>
    </g>
    <g fill="black">
        <svg
        xmlns="http://www.w3.org/2000/svg"
        xmlns:xlink="http://www.w3.org/1999/xlink"
        viewBox="0 0 151.20000000000002 78.48"
        width="45"
        height="45"
        x="7.5"
        y="7.5"
        class="image-svg-letter"
      >
        <path
          transform="translate(-3.6000000000000005 59.760000000000005)"
          d="M21.31 0C20.66-13.10 20.66-26.21 21.38-39.31L4.10-39.31C4.82-25.70 4.82-13.61 4.18 0ZM12.53-43.56C18.79-43.56 21.46-47.16 21.46-51.62C21.46-55.94 18.65-59.76 12.53-59.76C6.12-59.76 3.60-55.94 3.60-51.62C3.60-47.16 6.12-43.56 12.53-43.56ZM28.30 0L45.50 0C45.14-8.21 45.22-12.60 45.36-18.50C45.72-23.54 48.31-26.42 51.55-26.42C54.65-26.42 57.02-23.83 57.02-19.51C57.02-12.31 56.88-7.06 56.59 0L72.79 0C72.43-5.33 72.43-11.30 72.43-18.07L72.43-18.00C72.43-23.83 75.38-26.42 78.41-26.42C81.94-26.42 84.31-23.83 84.31-19.51C84.31-12.31 84.17-7.06 83.74 0L100.51 0C100.30-5.47 100.30-12.02 100.37-18.07L100.37-23.76C100.37-33.84 95.18-40.03 86.54-40.03C79.92-40.03 74.38-35.71 72.14-28.87C70.99-35.28 66.24-40.03 58.54-40.03C52.70-40.03 47.30-36.79 45.00-28.66L42.84-39.31C36.58-39.02 34.56-39.02 28.30-39.31C29.02-26.21 29.02-12.96 28.30 0ZM140.98-39.31L139.18-31.46C136.44-37.87 130.54-40.03 123.34-40.03C113.76-40.03 106.99-31.10 106.99-20.09C106.99-9.36 113.62-0.72 123.55-0.72C130.75-0.72 136.44-3.53 139.10-10.94L139.10-8.14C139.03-7.42 139.03-6.70 139.03-5.76C139.03 2.45 133.27 4.61 126.79 4.61C121.82 4.61 117.43 3.38 112.25 0.43L109.01 11.45C112.68 15.84 120.24 18.72 129.46 18.72C142.49 18.72 154.44 12.17 154.44-5.76C154.44-14.76 154.44-27.50 154.80-39.31ZM130.90-27.94C135.94-27.94 138.89-25.85 138.89-19.66C138.89-14.18 133.92-12.24 131.04-12.24C126.79-12.24 123.41-15.19 123.41-19.66C123.41-24.48 126.22-27.94 130.90-27.94Z"
        ></path>
      </svg>
    </g>
  </mask>
</svg>
